<svg id="Layer_1" data-name="Layer 1" xmlns="http://www.w3.org/2000/svg" viewBox="0 0 2000 2000"><defs><style>.cls-1{fill:#b08c3e;}</style></defs><path class="cls-1" d="M343.79,1655H319.72l-4,11.62h-8l20.2-54.46h7.45l20.56,54.46h-8Zm-2.31-6.56L331.64,1621,322,1648.39Z"/><path class="cls-1" d="M370.46,1609v57.59h-7.15V1609Z"/><path class="cls-1" d="M403.76,1667.17c-5.88,0-12.07-2.53-15-7.82v7.22h-7.16V1609h7.16v24.36c2.68-5.29,9.09-7.82,14.9-7.82,11.1,0,19.67,8,19.67,20.79C423.36,1659.2,415,1667.17,403.76,1667.17ZM402.27,1632c-8.56,0-13.86,6.11-13.86,14.38,0,8,5,14.31,13.94,14.31,8.64,0,13.56-5.81,13.56-14.09C415.91,1637.89,410.77,1632,402.27,1632Z"/><path class="cls-1" d="M446.83,1641.24a27.86,27.86,0,0,1,11.32,2.31v-1c0-7.16-3.94-10.51-11-10.51-5.52,0-11,2.31-13.71,4.84V1630c3.13-2.68,8.57-4.47,14.6-4.47,11.1,0,17.44,5.36,17.36,17.58v23.47h-7.15V1662c-2,2.54-7,5.22-14.16,5.22-7.9,0-14.16-4.62-14.16-12.59C429.91,1646.16,436.84,1641.24,446.83,1641.24Zm-.37,20.19a14.08,14.08,0,0,0,11.77-5.59v-6.63a21.08,21.08,0,0,0-10.43-2.61c-6.49,0-10.51,3-10.51,7.6C437.29,1659.42,441.69,1661.43,446.46,1661.43Z"/><path class="cls-1" d="M476.26,1626.11h7.15v6.34c2.38-4,7.82-6.93,14.08-6.93,10,0,16,5.59,16,18.48v22.57h-7.15v-21.46c0-9-3.65-13.26-11.33-13.26s-11.62,4.62-11.62,12.82v21.9h-7.15Z"/><path class="cls-1" d="M523.57,1615.31a4.32,4.32,0,1,1,4.32,4.4A4.32,4.32,0,0,1,523.57,1615.31Zm7.9,10.8v40.46h-7.16v-40.46Z"/><path class="cls-1" d="M557.32,1641.24a28,28,0,0,1,11.33,2.31v-1c0-7.16-3.95-10.51-11-10.51-5.52,0-11,2.31-13.71,4.84V1630c3.13-2.68,8.57-4.47,14.6-4.47,11.1,0,17.44,5.36,17.36,17.58v23.47h-7.15V1662c-2,2.54-7,5.22-14.16,5.22-7.9,0-14.15-4.62-14.15-12.59C540.41,1646.16,547.34,1641.24,557.32,1641.24Zm-.37,20.19a14.08,14.08,0,0,0,11.77-5.59v-6.63a21.06,21.06,0,0,0-10.43-2.61c-6.48,0-10.51,3-10.51,7.6C547.78,1659.42,552.18,1661.43,557,1661.43Z"/><path class="cls-1" d="M607.83,1612.11h14.24c9.68,0,23,1,23,13.48,0,7.6-4.55,11.77-11.77,12.67,7.08,1,12.81,5.22,12.81,13.63,0,13.42-14.08,14.68-23.77,14.68H607.83Zm15.8,23.09c8,0,13.41-1.86,13.41-8.64s-5.88-7.9-14.08-7.9h-7.67v16.54Zm.67,24.82c9.09,0,13.86-2.46,13.86-9.09,0-7.31-6.56-9.24-14.83-9.24h-8V1660Z"/><path class="cls-1" d="M654.77,1626.11h7.16v21.24c0,9,3.72,13.56,11.4,13.56,7.52,0,11.62-4.69,11.62-12.89v-21.91h7.15v40.46H685v-6.25c-2,4-7.38,6.85-13.93,6.85-10.06,0-16.25-6.63-16.25-19.52Z"/><path class="cls-1" d="M701.86,1656.74c3.73,2.9,9.17,4,13.71,4,4.7,0,7.53-1.19,7.53-4.69,0-2.61-1.42-4.85-10.73-7.9-6.49-2.31-11.25-5.51-11.25-11.7,0-7.38,6.55-10.8,14.45-11a23.5,23.5,0,0,1,12.82,3.35v6.78a25.87,25.87,0,0,0-13-3.72c-3.2,0-6.93.82-6.93,4.32,0,2.75,2.54,4.62,9.39,6.93,8.57,2.9,12.59,6.18,12.59,12.66,0,7.68-6,11.33-15.35,11.33-5.58,0-9.83-1.19-13.26-3.43Z"/><path class="cls-1" d="M738.67,1615.31a4.32,4.32,0,1,1,4.32,4.4A4.31,4.31,0,0,1,738.67,1615.31Zm7.89,10.8v40.46h-7.15v-40.46Z"/><path class="cls-1" d="M757.81,1626.11H765v6.34c2.38-4,7.82-6.93,14.08-6.93,10,0,16,5.59,16,18.48v22.57h-7.15v-21.46c0-9-3.65-13.26-11.33-13.26S765,1636.47,765,1644.67v21.9h-7.16Z"/><path class="cls-1" d="M842.83,1648.84H810.64c1.19,8.35,7.53,11.77,14.9,11.77,5.81,0,10.81-2.08,13.34-4.17v6.86a24.25,24.25,0,0,1-13.71,3.8c-13,0-22.13-7.6-22.06-21.09.08-13.12,8.87-20.49,20.12-20.49,10.43,0,19.3,6.33,19.6,20.86Zm-32.26-5.44h25.11c-1-8.2-5.89-11.4-12.37-11.4C815.93,1632,811.31,1636,810.57,1643.4Z"/><path class="cls-1" d="M850.35,1656.74c3.73,2.9,9.17,4,13.71,4,4.7,0,7.53-1.19,7.53-4.69,0-2.61-1.42-4.85-10.73-7.9-6.49-2.31-11.25-5.51-11.25-11.7,0-7.38,6.55-10.8,14.45-11a23.5,23.5,0,0,1,12.82,3.35v6.78a25.87,25.87,0,0,0-13-3.72c-3.2,0-6.93.82-6.93,4.32,0,2.75,2.54,4.62,9.39,6.93,8.57,2.9,12.59,6.18,12.59,12.66,0,7.68-6,11.33-15.35,11.33-5.58,0-9.83-1.19-13.26-3.43Z"/><path class="cls-1" d="M886.49,1656.74c3.72,2.9,9.16,4,13.71,4s7.52-1.19,7.52-4.69c0-2.61-1.41-4.85-10.73-7.9-6.48-2.31-11.25-5.51-11.25-11.7,0-7.38,6.56-10.8,14.46-11a23.47,23.47,0,0,1,12.81,3.35v6.78a25.84,25.84,0,0,0-13-3.72c-3.21,0-6.93.82-6.93,4.32,0,2.75,2.53,4.62,9.39,6.93,8.56,2.9,12.59,6.18,12.59,12.66,0,7.68-6,11.33-15.35,11.33-5.59,0-9.84-1.19-13.26-3.43Z"/><path class="cls-1" d="M961.66,1611.51c6.93,0,12.74,2,15.8,4.17v7.38c-2.61-1.86-9.61-4.47-15.8-4.47-4.84,0-9.83,2-9.83,7,0,4.55,4.47,6.93,13.41,10.36,11,4.25,15,9,15,16.24,0,9.32-7.3,15-19.67,15-5.89,0-11.7-1.42-15.5-4.17v-7.3a30.76,30.76,0,0,0,16,4.47c5.36,0,11.32-2.09,11.32-7.75,0-4.4-2.9-7.23-12.14-10.66s-16.4-7.52-16.4-16.17S950.93,1611.51,961.66,1611.51Z"/><path class="cls-1" d="M1027.75,1648.84H995.56c1.2,8.35,7.53,11.77,14.91,11.77,5.81,0,10.8-2.08,13.33-4.17v6.86a24.25,24.25,0,0,1-13.71,3.8c-13,0-22.13-7.6-22.05-21.09.07-13.12,8.86-20.49,20.12-20.49,10.43,0,19.29,6.33,19.59,20.86Zm-32.26-5.44h25.11c-1-8.2-5.89-11.4-12.37-11.4C1000.85,1632,996.23,1636,995.49,1643.4Z"/><path class="cls-1" d="M1036.47,1626.11h7.15v5.29a11,11,0,0,1,10.13-5.88,11.39,11.39,0,0,1,5.44,1.34v6.78a11.63,11.63,0,0,0-6.18-1.57c-5.81,0-9.39,3.8-9.39,9.91v24.59h-7.15Z"/><path class="cls-1" d="M1103.45,1626.11l-16.77,40.46h-6.78l-16.76-40.46h7.75l12.37,31.3,12.51-31.3Z"/><path class="cls-1" d="M1109.78,1615.31a4.32,4.32,0,1,1,4.32,4.4A4.32,4.32,0,0,1,1109.78,1615.31Zm7.9,10.8v40.46h-7.16v-40.46Z"/><path class="cls-1" d="M1159.1,1664.56a26.2,26.2,0,0,1-11.84,2.61c-12.6,0-20.72-8.57-20.64-20.79.07-12.74,9.09-20.86,21.46-20.86a23.42,23.42,0,0,1,11,2.53v6.63a21.81,21.81,0,0,0-10.35-2.68c-9.39,0-14.68,6.33-14.61,14.38.08,7.82,5.29,14.31,14.61,14.31a21,21,0,0,0,10.35-2.83Z"/><path class="cls-1" d="M1205.67,1648.84h-32.19c1.19,8.35,7.53,11.77,14.9,11.77,5.82,0,10.81-2.08,13.34-4.17v6.86a24.25,24.25,0,0,1-13.71,3.8c-13,0-22.13-7.6-22-21.09.07-13.12,8.86-20.49,20.11-20.49,10.44,0,19.3,6.33,19.6,20.86Zm-32.26-5.44h25.11c-1-8.2-5.89-11.4-12.37-11.4C1178.77,1632,1174.15,1636,1173.41,1643.4Z"/><path class="cls-1" d="M1213.19,1656.74c3.73,2.9,9.17,4,13.71,4,4.7,0,7.53-1.19,7.53-4.69,0-2.61-1.42-4.85-10.73-7.9-6.48-2.31-11.25-5.51-11.25-11.7,0-7.38,6.55-10.8,14.45-11a23.5,23.5,0,0,1,12.82,3.35v6.78a25.85,25.85,0,0,0-13-3.72c-3.2,0-6.93.82-6.93,4.32,0,2.75,2.54,4.62,9.39,6.93,8.57,2.9,12.59,6.18,12.59,12.66,0,7.68-6,11.33-15.34,11.33-5.59,0-9.84-1.19-13.27-3.43Z"/><path class="cls-1" d="M1303.72,1655h-24.07l-4,11.62h-8l20.19-54.46h7.45l20.56,54.46h-8Zm-2.31-6.56-9.84-27.42-9.61,27.42Z"/><path class="cls-1" d="M1321.52,1656.74c3.73,2.9,9.17,4,13.71,4,4.7,0,7.53-1.19,7.53-4.69,0-2.61-1.42-4.85-10.73-7.9-6.48-2.31-11.25-5.51-11.25-11.7,0-7.38,6.56-10.8,14.45-11a23.48,23.48,0,0,1,12.82,3.35v6.78a25.84,25.84,0,0,0-13-3.72c-3.21,0-6.94.82-6.94,4.32,0,2.75,2.54,4.62,9.39,6.93,8.57,2.9,12.6,6.18,12.6,12.66,0,7.68-6,11.33-15.35,11.33-5.59,0-9.84-1.19-13.27-3.43Z"/><path class="cls-1" d="M1357.66,1656.74c3.72,2.9,9.16,4,13.71,4s7.52-1.19,7.52-4.69c0-2.61-1.41-4.85-10.73-7.9-6.48-2.31-11.25-5.51-11.25-11.7,0-7.38,6.56-10.8,14.46-11a23.44,23.44,0,0,1,12.81,3.35v6.78a25.81,25.81,0,0,0-13-3.72c-3.2,0-6.93.82-6.93,4.32,0,2.75,2.53,4.62,9.39,6.93,8.57,2.9,12.59,6.18,12.59,12.66,0,7.68-6,11.33-15.35,11.33-5.59,0-9.83-1.19-13.26-3.43Z"/><path class="cls-1" d="M1393,1646.31c.08-12.15,8.8-20.79,21.46-20.79,12.82,0,21.76,8.72,21.76,20.79,0,12.22-8.87,20.86-21.68,20.86C1401.54,1667.17,1392.9,1658.38,1393,1646.31Zm21.54-14.31c-8.65,0-14,6.18-14,14.38,0,7.9,5.07,14.31,14.08,14.31s14.09-6.34,14.09-14.09C1428.67,1638.26,1423.23,1632,1414.51,1632Z"/><path class="cls-1" d="M1475.75,1664.56a26.21,26.21,0,0,1-11.85,2.61c-12.59,0-20.71-8.57-20.64-20.79.08-12.74,9.1-20.86,21.46-20.86a23.43,23.43,0,0,1,11,2.53v6.63a21.82,21.82,0,0,0-10.36-2.68c-9.38,0-14.67,6.33-14.6,14.38.07,7.82,5.29,14.31,14.6,14.31a21,21,0,0,0,10.36-2.83Z"/><path class="cls-1" d="M1486,1615.31a4.32,4.32,0,1,1,4.32,4.4A4.31,4.31,0,0,1,1486,1615.31Zm7.9,10.8v40.46h-7.16v-40.46Z"/><path class="cls-1" d="M1519.71,1641.24a27.86,27.86,0,0,1,11.32,2.31v-1c0-7.16-4-10.51-11-10.51-5.52,0-11,2.31-13.71,4.84V1630c3.13-2.68,8.57-4.47,14.6-4.47,11.1,0,17.44,5.36,17.36,17.58v23.47h-7.15V1662c-2,2.54-7,5.22-14.16,5.22-7.9,0-14.16-4.62-14.16-12.59C1502.79,1646.16,1509.72,1641.24,1519.71,1641.24Zm-.37,20.19a14.08,14.08,0,0,0,11.77-5.59v-6.63a21.08,21.08,0,0,0-10.43-2.61c-6.49,0-10.51,3-10.51,7.6C1510.17,1659.42,1514.57,1661.43,1519.34,1661.43Z"/><path class="cls-1" d="M1543.77,1626.11h5.74l1.94-8.94h5.21v8.94h12.67v6h-12.67v21.54c0,6.33,3.13,7.08,5.52,7.08a15.71,15.71,0,0,0,7.52-2v6a17.31,17.31,0,0,1-9.09,2.46c-6.18,0-11-2.91-11-11.62l-.07-23.48h-5.74Z"/><path class="cls-1" d="M1577.52,1615.31a4.33,4.33,0,1,1,4.32,4.4A4.32,4.32,0,0,1,1577.52,1615.31Zm7.9,10.8v40.46h-7.15v-40.46Z"/><path class="cls-1" d="M1594.36,1646.31c.08-12.15,8.79-20.79,21.46-20.79,12.82,0,21.76,8.72,21.76,20.79,0,12.22-8.87,20.86-21.69,20.86S1594.29,1658.38,1594.36,1646.31Zm21.53-14.31c-8.64,0-14,6.18-14,14.38,0,7.9,5.06,14.31,14.08,14.31,8.87,0,14.08-6.34,14.08-14.09C1630.05,1638.26,1624.61,1632,1615.89,1632Z"/><path class="cls-1" d="M1646.22,1626.11h7.15v6.34c2.39-4,7.82-6.93,14.08-6.93,10,0,16,5.59,16,18.48v22.57h-7.15v-21.46c0-9-3.65-13.26-11.32-13.26s-11.63,4.62-11.63,12.82v21.9h-7.15Z"/><path class="cls-1" d="M626.27,1081.34a7.88,7.88,0,0,1-6.25-3.07,475.29,475.29,0,0,1,659.05-672,7.87,7.87,0,0,1-9.34,12.67,455,455,0,0,0-272.11-89.42c-3.06,0-6.1,0-9.17.09-253.36,4.88-455.51,215-450.62,468.34,1.9,98.88,34.64,192.48,94.67,270.69a7.86,7.86,0,0,1-6.23,12.66Z"/><path class="cls-1" d="M997.12,1264.44a473.19,473.19,0,0,1-281.82-92.67,7.87,7.87,0,0,1,9.35-12.66c82,60.52,179.34,91.48,281.52,89.51,253.36-4.89,455.51-215,450.63-468.35-2-103.58-37.53-200.71-102.74-280.88a7.87,7.87,0,1,1,12.21-9.93,475.16,475.16,0,0,1-359.8,774.89Q1001.79,1264.44,997.12,1264.44Z"/><path class="cls-1" d="M573.81,1237.14a7.87,7.87,0,0,1-5.66-13.32l847-880.29a7.87,7.87,0,0,1,11.35,10.91l-847,880.29A7.84,7.84,0,0,1,573.81,1237.14Z"/><path class="cls-1" d="M1084.73,789.13H1177l12.69,34.71c-2.47-.24-4.92-.54-7.38-.93l-8.84-24.12-29.42,80.48a52.85,52.85,0,0,0-15.63,7.43c3.58,1.77,6.89,3.25,10.06,5,.32.18.58.34.84.5l-1.92,5.26c-4,2.48-8,5-11.9,7.55-3,2-14.1,9.8-26.86,18.84a52.43,52.43,0,0,0-20.7,30.57l-.68,2.83a38.59,38.59,0,0,0,22,44.43l-14.61,40H992.42Z"/><path class="cls-1" d="M1216.85,917a41.53,41.53,0,0,0,6-2.5l46.48,127.14h-46.16l19.65-53.75Z"/><path class="cls-1" d="M1087.22,1009.85c.09,0,4.8-2.47,10.51-5.43,5.56-8.95,13.92-17.61,20.8-25.57,7.9-9.13,20.24-14,31.09-18.6,4.56-2,9.08-4,13.64-5.92,7.49-4.37,15.55-10.3,19.86-15.11,17.07-19.05,38.36-30.84,64-33.1,15.21-1.35,30.61-.54,45.91-1a258.59,258.59,0,0,0,25.79-2.11,12.48,12.48,0,0,0,9.48-7.12c-16.59,2.75-32.2,3.58-43.47-11.57a13.74,13.74,0,0,1,5.94.22c10.84,2.54,21.57,5.61,32.51,7.61,10.61,1.95,21.49,2,31.74-1.91a45.17,45.17,0,0,0,12.86-8.19c3.36-2.87,3.74-9.58,1.63-12s-6.14-2.44-10.9.4a102,102,0,0,0-9.11,6.19c-7.17,5.41-15.26,7.48-24.12,6.93-3-.19-6-.31-8.94-.63-8.06-.84-16-2.24-23.53-6.61,7-4.93,14-8.68,22.18-9.63s12.82,1.56,16.58,8.83c.46.88,1,1.71,1.63,2.81,5.27-13.42,2-21.81-11-26.6-6.65-2.45-13.83-3.47-21-5.19.42-5.09-3.21-8.66-7.47-11.44-4.5-2.93-9.42-5.22-14.15-7.79l-14.29-3.43c-28.6,1.76-57.16,6.76-85.86.3l-.77,1.24,20,23.91a89.34,89.34,0,0,0-43.53,19.84l23.39,6.7-.13,1.3c-15.66,1.15-36.56-.66-50.45,9.12,3.59,1.76-7.11,4.77,7.15,6.84,3.82.56-2.72.62-5.94,2.62-4.39,2.72-7.67,3.7-12,6.54-3,2-16.42,11.7-29.19,20.74-10.37,7.34-11.53,22.06-14.49,34.42l-1.2,7.45C1065,995.45,1058.16,1021.88,1087.22,1009.85Zm158.85-157.13c.28-1.54,2.77-3.44,4.56-3.82a27.25,27.25,0,0,1,23,5.37c4.35,3.35,3.46,8.13-1.85,9.36-4.1,1-8.51.58-12.64.78-3.93-2.07-7.63-3.54-10.69-5.86A7.19,7.19,0,0,1,1246.07,852.72Z"/><path class="cls-1" d="M911.33,478.58H819l-12.2,33.92c2.46-.24,4.62-.31,7.09-.7l8.64-23.56L852,568.72a52.84,52.84,0,0,1,15.63,7.43c-3.59,1.76-6.9,3.25-10.07,5-.32.17-.58.34-.84.5l1.92,5.25c4,2.48,8,5,11.9,7.56,3,2,14.1,9.8,26.87,18.84a52.42,52.42,0,0,1,20.69,30.57l.68,2.82a38.6,38.6,0,0,1-22,44.44l14.61,40h92.31Z"/><path class="cls-1" d="M779.21,606.46a40.84,40.84,0,0,1-6-2.49L726.72,731.1h46.15l-19.65-53.75Z"/><path class="cls-1" d="M923.75,654.31l-1.2-7.45c-3-12.36-4.12-27.08-14.5-34.43-12.77-9-26.16-18.73-29.19-20.73-4.31-2.85-7.59-3.82-12-6.54-3.22-2-9.76-2.07-5.94-2.62,14.26-2.07,3.57-5.08,7.15-6.85-13.89-9.78-34.79-8-50.44-9.11l-.14-1.3,23.39-6.7a89.35,89.35,0,0,0-43.53-19.85l20-23.9-.77-1.24c-28.7,6.45-57.26,1.46-85.86-.3l-14.28,3.42c-4.74,2.58-9.66,4.87-14.16,7.8-4.26,2.78-7.89,6.34-7.46,11.44-7.19,1.72-14.37,2.74-21,5.19-13,4.79-16.26,13.18-11,26.6.64-1.11,1.18-1.94,1.63-2.81,3.76-7.28,8.38-9.79,16.58-8.84s15.17,4.71,22.18,9.63c-7.56,4.38-15.47,5.78-23.53,6.62-3,.31-6,.44-8.94.62-8.86.55-16.94-1.51-24.12-6.92a101.21,101.21,0,0,0-9.1-6.19c-4.77-2.84-8.77-2.87-10.91-.41s-1.73,9.13,1.63,12c3.84,3.28,8.19,6.42,12.86,8.19,10.25,3.89,21.13,3.85,31.75,1.91,10.93-2,21.66-5.07,32.5-7.62a13.9,13.9,0,0,1,5.94-.21C700,588.87,684.38,588,667.79,585.28a12.47,12.47,0,0,0,9.48,7.13,258.57,258.57,0,0,0,25.79,2.1c15.3.51,30.7-.29,45.91,1,25.61,2.27,46.91,14.05,64,33.1,4.31,4.81,12.36,10.75,19.85,15.11,4.56,1.92,9.08,4,13.64,5.92,10.85,4.64,23.19,9.47,31.1,18.61,6.88,8,15.23,16.61,20.8,25.57,5.7,3,10.42,5.4,10.5,5.43C937.9,711.33,931.08,684.89,923.75,654.31ZM747.59,548c-3.05,2.32-6.76,3.79-10.68,5.87-4.14-.21-8.54.17-12.65-.78-5.31-1.23-6.2-6-1.85-9.37a27.25,27.25,0,0,1,23-5.36c1.79.38,4.28,2.28,4.56,3.82A7.17,7.17,0,0,1,747.59,548Z"/><path class="cls-1" d="M817.74,1506H763l-7.32,22H714.57l55.15-149.56h41.51L866.17,1528h-41.1Zm-10-30.32-17.5-52.7-17.3,52.7Z"/><path class="cls-1" d="M881.43,1378.42h53.92c26.45,0,64.71,2,64.71,38,0,18.92-10.78,31.54-33.37,33.78,21.57,2.85,36.42,14.65,36.42,37,0,37.65-41.31,40.7-67.76,40.7H881.43Zm57.38,59.21c11,0,18.52-3.05,18.52-13.84,0-11.8-8.55-13.22-20.76-13.22H922.12v27.06Zm-1,58c12.21,0,22.59-2,22.59-14.85,0-12.41-10.58-15.06-23.4-15.06H922.12v29.91Z"/><path class="cls-1" d="M1068.63,1376.79c19.13,0,36.83,6.1,45.18,12.41v35.41c-12.21-7.74-30.32-13.84-42.33-13.84-7.93,0-12.61,3-12.61,8.14,0,5.49,5.9,9.77,26.86,20.75,23,11.6,36,24.83,36,46.6,0,26.86-20.14,43.35-56.16,43.35-17.7,0-34.59-5.09-45-12.62v-35.2c14,9.15,30.93,14,43.95,14,9,0,14.86-2.65,14.86-8.75s-4.68-11-23.61-20.35c-24-12.62-39.27-23.81-39.27-47.21C1016.54,1393.07,1037.7,1376.79,1068.63,1376.79Z"/><path class="cls-1" d="M1231.83,1506h-54.74l-7.33,22h-41.1l55.14-149.56h41.51l55,149.56h-41.11Zm-10-30.32-17.5-52.7-17.3,52.7Z"/></svg>