<!-- Icon link: https://www.iconfinder.com/icons/4177614/agreement_deal_friends_handshake_icon -->
<svg width="32" height="32" xmlns="http://www.w3.org/2000/svg">

    <title />
    <g>
        <title>background</title>
        <rect fill="none" id="canvas_background" height="402" width="582" y="-1" x="-1" />
    </g>
    <g>
        <title>Layer 1</title>
        <path fill="#176083" id="svg_1"
            d="m30.68,19.05l-1.9,0.64l-1.65,-9.06l4.24,-1.7a1,1 0 1 0 -0.74,-1.86l-5,2a1,1 0 0 0 -0.63,1.11l0,0.18l-2.39,1.19a1,1 0 0 1 -1.05,-0.09l-2.43,-1.86a3,3 0 0 0 -1.8,-0.6l-2.71,0a2,2 0 0 0 -1.78,1.09l-1.79,-0.09a1,1 0 0 0 -0.5,0.11l-1.67,0.83l-2.88,-0.72l0,-0.13a1,1 0 0 0 -0.55,-1l-4,-2a1,1 0 0 0 -0.9,1.78l3.39,1.7l-0.82,9.06l-1.8,-0.6a1,1 0 1 0 -0.64,1.97l3,1a1.19,1.19 0 0 0 0.32,0a1.1,1.1 0 0 0 0.55,-0.16a1,1 0 0 0 0.45,-0.75l0.08,-0.93l1.29,0.64a3.07,3.07 0 0 0 1.09,1.89l5.77,4.14a2,2 0 0 0 2.84,-0.3a2.91,2.91 0 0 0 2.36,-0.13l5.41,-2.7a2.31,2.31 0 0 0 1.24,-1.7a1.71,1.71 0 0 0 0,-0.32l1.9,-0.63l0,0.12a1,1 0 0 0 0.47,0.68a1,1 0 0 0 0.55,0.15a1.19,1.19 0 0 0 0.32,-0.05l3,-1a1,1 0 1 0 -0.64,-1.9zm-22,2.06a1,1 0 0 1 -0.3,-1.11a0.2,0.2 0 0 1 0.15,-0.14c0.06,0 0.14,0 0.26,0.08l6.05,4.37l-0.33,1l0,0l-5.83,-4.2zm14.26,0.8l-5.41,2.7a1,1 0 0 1 -0.76,0.06a2,2 0 0 0 -0.72,-1.92l-6,-4.37a2.22,2.22 0 0 0 -2.05,-0.38a2.19,2.19 0 0 0 -1.18,0.84l-1.36,-0.68a0.61,0.61 0 0 0 -0.18,-0.05l0.53,-5.83l3,0.74l0.19,-0.02a1,1 0 0 0 0.45,-0.11l1.76,-0.89l0.65,0l-0.75,1.51a1,1 0 0 0 0.44,1.34l0.21,0.11a3,3 0 0 0 3.83,-1l1,0l6.38,7.29a1.19,1.19 0 0 0 0.09,0.15a0.26,0.26 0 0 1 0.08,0.25a0.27,0.27 0 0 1 -0.14,0.26l-0.06,0zm1.36,-2.07l-6.56,-7.5a1,1 0 0 0 -0.74,-0.34l-2,0a1,1 0 0 0 -0.89,0.55l-0.11,0.21a1,1 0 0 1 -0.5,0.47l1.12,-2.23l2.71,0a1,1 0 0 1 0.6,0.2l2.48,1.86a3,3 0 0 0 3.14,0.28l1.87,-0.93l1.21,6.66l-2.33,0.77z"
            class="cls-1" />
    </g>
</svg>