<!-- Icon link: https://www.iconfinder.com/icons/6358135/business_leader_man_management_office_people_teamwork_icon -->
<svg width="32" height="32" xmlns="http://www.w3.org/2000/svg">

    <g>
        <title>background</title>
        <rect fill="none" id="canvas_background" height="402" width="582" y="-1" x="-1" />
    </g>
    <g>
        <title>Layer 1</title>
        <path fill="#176083" id="svg_1"
            d="m23.87,24a7.75,7.75 0 0 0 -0.27,-1.08c0,-0.05 0,-0.1 -0.05,-0.15a8.15,8.15 0 0 0 -0.41,-1l-0.06,-0.12a7.87,7.87 0 0 0 -0.59,-0.95a1.47,1.47 0 0 1 -0.1,-0.13a8.07,8.07 0 0 0 -1.63,-1.57l-0.08,-0.06a8,8 0 0 0 -1,-0.62l0,0a8.1,8.1 0 0 0 -1.14,-0.48a5.16,5.16 0 0 0 0.59,-0.56l0.12,-0.14a4.6,4.6 0 0 0 0.47,-0.66a0.83,0.83 0 0 0 0.07,-0.13a4.09,4.09 0 0 0 0.33,-0.7l0.06,-0.13a6.28,6.28 0 0 0 0.23,-0.85l0,-0.19a5.86,5.86 0 0 0 0.08,-0.94a4.5,4.5 0 0 0 -9,0a5.86,5.86 0 0 0 0.08,0.94l0,0.19a6.28,6.28 0 0 0 0.23,0.85l0.06,0.13a4.09,4.09 0 0 0 0.33,0.7a0.83,0.83 0 0 0 0.07,0.13a4.6,4.6 0 0 0 0.47,0.66l0.12,0.14a5.16,5.16 0 0 0 0.59,0.56a8.1,8.1 0 0 0 -1.14,0.48l0,0a8,8 0 0 0 -1,0.62l-0.08,0.06a8.07,8.07 0 0 0 -1.63,1.62a1.47,1.47 0 0 1 -0.1,0.13a7.87,7.87 0 0 0 -0.59,0.95l-0.06,0.12a8.15,8.15 0 0 0 -0.41,1c0,0.05 0,0.1 0,0.15a7.75,7.75 0 0 0 -0.3,1.03a2,2 0 0 1 0,0.24a8.66,8.66 0 0 0 -0.13,1.13l0,2.63l2,0l0,-2.63a5.52,5.52 0 0 1 0.08,-0.92c0,-0.06 0,-0.11 0,-0.16a7.38,7.38 0 0 1 0.22,-0.84l0,-0.14a6,6 0 0 1 0.88,-1.58a0.1,0.1 0 0 1 0,-0.05a5,5 0 0 1 0.62,-0.68l0,0a6,6 0 0 1 2.52,-1.38a1.37,1.37 0 0 0 0.13,0.2l0.36,0.35l-0.64,5.65a1,1 0 0 0 0.28,0.82l0.7,0.7a1,1 0 0 0 1.42,0l0.7,-0.7a1,1 0 0 0 0.28,-0.82l-0.64,-5.65l0.36,-0.35a1.37,1.37 0 0 0 0.13,-0.2a6,6 0 0 1 2.66,1.38l0,0a5,5 0 0 1 0.62,0.68a0.1,0.1 0 0 1 0,0.05a6,6 0 0 1 0.88,1.58l0.05,0.14a7.38,7.38 0 0 1 0.22,0.84c0,0.05 0,0.1 0,0.16a5.52,5.52 0 0 1 0.08,0.92l0,2.63l2,0l0,-2.63a8.66,8.66 0 0 0 -0.09,-1.16a2,2 0 0 1 0.05,-0.21zm-7.87,-13a2.5,2.5 0 0 1 2.5,2.49c0,1.76 -1.12,3.19 -2.5,3.19s-2.5,-1.43 -2.5,-3.19a2.5,2.5 0 0 1 2.5,-2.49z" />
        <path fill="#176083" id="svg_2"
            d="m9.05,15.15l0,0l0.36,-0.35a1.37,1.37 0 0 0 0.13,-0.2l0,0a5.29,5.29 0 0 1 1.11,0.42a6.94,6.94 0 0 1 -0.17,-1.52a3.94,3.94 0 0 1 0.05,-0.69l0,0a0.1,0.1 0 0 0 0.05,0a5.4,5.4 0 0 1 1.88,-3.44a5.46,5.46 0 0 0 0.06,-0.82l0,0a4.5,4.5 0 0 0 -9,0a5.45,5.45 0 0 0 2,4.3a8,8 0 0 0 -5.52,7.52l0,0l0,2.63l2,0l0,-2.63a6,6 0 0 1 4.44,-5.78l0,0a1.37,1.37 0 0 0 0.13,0.2l0.36,0.35l0.07,0l-0.64,5.64a1,1 0 0 0 0.28,0.82l0.7,0.7a0.9,0.9 0 0 0 0.19,0.15a9.1,9.1 0 0 1 2,-3.31l-0.48,-3.99zm-1.05,-9.15a2.5,2.5 0 0 1 2.5,2.49c0,1.76 -1.12,3.19 -2.5,3.19l0,0c-1.38,0 -2.5,-1.43 -2.5,-3.19a2.5,2.5 0 0 1 2.5,-2.49z" />
        <path fill="#176083" id="svg_3"
            d="m32,20.37a8,8 0 0 0 -5.48,-7.58a5.45,5.45 0 0 0 2,-4.3a4.5,4.5 0 0 0 -9,0l0,0a5.46,5.46 0 0 0 0.06,0.82a5.4,5.4 0 0 1 1.88,3.44a0.1,0.1 0 0 0 0,0l0,0a3.94,3.94 0 0 1 0.05,0.69a6.94,6.94 0 0 1 -0.18,1.56a5.29,5.29 0 0 1 1.11,-0.42l0,0a1.37,1.37 0 0 0 0.13,0.2l0.36,0.35l0,0l-0.45,4a9.1,9.1 0 0 1 2,3.31a0.9,0.9 0 0 0 0.19,-0.15l0.7,-0.7a1,1 0 0 0 0.28,-0.82l-0.64,-5.64l0,0l0.36,-0.35a1.37,1.37 0 0 0 0.13,-0.2l0,0a6,6 0 0 1 4.5,5.79l0,2.63l2,0l0,-2.63zm-8,-14.37a2.5,2.5 0 0 1 2.5,2.49c0,1.76 -1.12,3.19 -2.5,3.19l0,0c-1.38,0 -2.5,-1.43 -2.5,-3.19a2.5,2.5 0 0 1 2.5,-2.49z" />
    </g>
</svg>