<!-- Icon link: https://www.iconfinder.com/icons/4230535/calendar_event_star_icon -->
<svg width="256" height="256" xmlns="http://www.w3.org/2000/svg">

    <g>
        <title>background</title>
        <rect fill="none" id="canvas_background" height="402" width="582" y="-1" x="-1" />
    </g>
    <g>
        <title>Layer 1</title>
        <path fill="#ffffff" id="svg_2"
            d="m97.1,170l-3.9,22.9c-0.6,3.7 0.9,7.4 3.9,9.6c1.7,1.3 3.7,1.9 5.8,1.9c1.6,0 3.1,-0.4 4.6,-1.1l20.6,-10.8l20.6,10.8c3.3,1.8 7.3,1.5 10.4,-0.7c3.1,-2.2 4.6,-5.9 3.9,-9.6l-3.9,-22.9l16.6,-16.2c2.7,-2.6 3.7,-6.5 2.5,-10.1c-1.2,-3.6 -4.2,-6.2 -7.9,-6.7l-23,-3.3l-10.3,-20.8c-1.7,-3.4 -5.1,-5.5 -8.8,-5.5c-3.8,0 -7.2,2.1 -8.8,5.5l-10.3,20.8l-23,3.3c-3.7,0.5 -6.8,3.1 -7.9,6.7c-1.2,3.6 -0.2,7.5 2.5,10.1l16.4,16.1zm15.8,-26.9c1.6,-0.2 3,-1.3 3.7,-2.7l11.3,-23.2l11.4,23.2c0.7,1.5 2.1,2.5 3.7,2.7l25.5,3.6l-18.4,18c-1.2,1.1 -1.7,2.8 -1.4,4.4l4.5,25.4l-22.9,-12c-1.4,-0.8 -3.2,-0.8 -4.6,0l-22.7,12l4.4,-25.5c0.3,-1.6 -0.3,-3.3 -1.4,-4.4l-18.6,-17.9l25.5,-3.6z" />
        <path fill="#ffffff" stroke="#ffffff" id="svg_3"
            d="m234.5,35.8l-28,0l0,-15c0,-2.7 -2.2,-5 -5,-5s-5,2.2 -5,5l0,15l-137,0l0,-15c0,-2.7 -2.2,-5 -5,-5c-2.7,0 -5,2.2 -5,5l0,15l-28,0c-8.7,0 -15.7,7 -15.7,15.7l0,24.9c0,0 0,0 0,0l0,148.1c0,8.7 7,15.7 15.7,15.7l213,0c8.7,0 15.7,-7 15.7,-15.7l0,-148.1c0,0 0,0 0,0l0,-24.9c0,-8.7 -7.1,-15.7 -15.7,-15.7zm5.8,188.7c0,3.2 -2.6,5.8 -5.8,5.8l-213,0c-3.2,0 -5.8,-2.6 -5.8,-5.8l0,-143.1l224.5,0l0,143.1l0.1,0zm0,-153l-224.6,0l0,-20c0,-3.2 2.6,-5.8 5.8,-5.8l213,0c3.2,0 5.8,2.6 5.8,5.8l0,20z" />
    </g>
</svg>