<!-- Icon link: https://www.iconfinder.com/icons/372922/description_info_information_linecon_read_round_icon -->
<svg width="48" height="48" xmlns="http://www.w3.org/2000/svg">

    <g>
        <title>background</title>
        <rect fill="none" id="canvas_background" height="402" width="582" y="-1" x="-1" />
    </g>
    <g>
        <title>Layer 1</title>
        <path fill="#ffffff" id="svg_3"
            d="m23.945,15.67282c1.26,0 2.053,-0.864 2.016,-1.944c0,-1.115 -0.756,-1.979 -1.943,-1.979c-1.151,0 -1.979,0.863 -1.979,1.979c0,1.08 0.791,1.944 1.906,1.944z" />
        <path fill="#ffffff" id="svg_4"
            d="m25.602,34.941l0,-14.796c0,-1.303 -1.053,-1.413 -1.351,-1.418l-0.566,0c0,0 -1.251,0.012 -1.251,1.152l0,15.303c0.023,0.346 0.175,0.967 1.001,0.967l1.181,0c0.351,-0.028 0.986,-0.211 0.986,-1.208z" />
        <path fill="#ffffff" id="svg_5"
            d="m24,0c-13.254,0 -24,10.744 -24,24c0,13.254 10.745,24 24,24c13.256,0 24,-10.746 24,-24c0,-13.256 -10.744,-24 -24,-24zm0,44c-11.045,0 -20,-8.955 -20,-20c0,-11.047 8.955,-20 20,-20c11.047,0 20,8.954 20,20c0,11.045 -8.953,20 -20,20z" />
    </g>
</svg>