<!-- Icon link: https://www.iconfinder.com/icons/809587/email_inbox_letter_mail_office_icon -->
<svg width="24" height="24" xmlns="http://www.w3.org/2000/svg">

    <g>
        <title>background</title>
        <rect fill="none" id="canvas_background" height="402" width="582" y="-1" x="-1" />
    </g>
    <g>
        <title>Layer 1</title>
        <path fill="#ffffff" id="svg_2"
            d="m23.4,8.4l-3.4,-2.6l0,-3.8c0,-0.6 -0.4,-1 -1,-1l-5.4,0l-0.9,-0.7c-0.4,-0.4 -1,-0.4 -1.4,0l-0.9,0.7l-5.4,0c-0.6,0 -1,0.4 -1,1l0,3.8l-3.3,2.5c0,0 -0.7,0.5 -0.7,1.3c0,1.2 0,13.4 0,13.4c0,0.6 0.4,1 1,1l22,0c0.6,0 1,-0.4 1,-1c0,0 0,-12.4 0,-13.5c0,-0.6 -0.6,-1.1 -0.6,-1.1zm-18.4,-1.1l0,-2.2l0,-3.1l4.1,0l5.8,0l4.1,0l0,3.1l0,2.2l0,5.1l-4.5,3.3l-1.8,-1.4c-0.4,-0.4 -1,-0.4 -1.4,0l-1.8,1.4l-4.5,-3.3l0,-5.1zm-3,2.2l2,-1.5l0,3.6l-2,-1.5l0,-0.6zm0,2.1l6.4,4.9l-6.4,4.9l0,-9.8zm1.1,10.4l8.9,-6.5l8.9,6.5l-17.8,0zm18.9,-0.6l-6.4,-4.9l6.4,-4.9l0,9.8zm0,-11.2l-2,1.5l0,-3.7l2,1.5l0,0.7z" />
        <rect fill="#ffffff" id="svg_3" y="5" x="7" width="10" height="1" />
        <rect fill="#ffffff" id="svg_4" y="8" x="7" width="10" height="1" />
        <rect fill="#ffffff" id="svg_5" y="11" x="7" width="10" height="1" />
    </g>
</svg>