<svg width="64" height="64" xmlns="http://www.w3.org/2000/svg">

 <g>
  <title>background</title>
  <rect fill="none" id="canvas_background" height="402" width="582" y="-1" x="-1"/>
 </g>
 <g>
  <title>Layer 1</title>
  <path fill="#ffffff" stroke="#ffffff" id="svg_2" d="m58,25l-2,0l0,-4.298c0,-3.574 -1.601,-6.904 -4.391,-9.137c-2.067,-1.654 -4.663,-2.565 -7.31,-2.565l-16.839,0c-1.1,-1.224 -2.689,-2 -4.46,-2l-16,0c-3.309,0 -6,2.691 -6,6s2.691,6 6,6l16,0c1.771,0 3.36,-0.776 4.46,-2l16.839,0c0.837,0 1.658,0.288 2.312,0.811c0.883,0.707 1.39,1.76 1.39,2.891l0,4.298l-9.597,0c-1.132,0 -2.241,0.389 -3.124,1.096l-2.809,2.247c-0.53,0.424 -1.196,0.657 -1.874,0.657l-6.597,0c-1.302,0 -2.402,0.839 -2.816,2l-2.184,0c-1.103,0 -2,0.897 -2,2l-4.52,0l-4,-5l-7.48,0l0,24l7.48,0l4,-5l4.52,0c0,1.103 0.897,2 2,2l2.184,0c0.302,0.847 0.969,1.514 1.816,1.816l0,3.184c0,1.654 1.346,3 3,3l32,0c1.654,0 3,-1.346 3,-3l0,-4l-0.031,0c1.225,-0.912 2.031,-2.359 2.031,-4l0,-16c0,-2.757 -2.243,-5 -5,-5zm-45,12l0,-2l4,0l0,2l-4,0zm4,2l0,2l-4,0l0,-2l4,0zm-14,-9l4,0l0,20l-4,0l0,-20zm8,15.649l-2,2.5l0,-16.298l2,2.5l0,11.298zm2,-0.649l0,-2l4,0l0,2l-4,0zm10,-28l-16,0c-2.206,0 -4,-1.794 -4,-4s1.794,-4 4,-4l16,0c2.206,0 4,1.794 4,4s-1.794,4 -4,4zm24.859,-0.751c-1.006,-0.806 -2.271,-1.249 -3.56,-1.249l-15.649,0c0.223,-0.627 0.35,-1.298 0.35,-2s-0.128,-1.373 -0.35,-2l15.649,0c2.195,0 4.348,0.755 6.061,2.126c2.313,1.852 3.64,4.613 3.64,7.576l0,4.298l-4,0l0,-4.298c0,-1.742 -0.78,-3.365 -2.141,-4.453zm-24.859,15.751c0,-0.551 0.448,-1 1,-1l6.597,0c0.136,0 0.269,-0.023 0.403,-0.034l0,18.034l-7,0c-0.552,0 -1,-0.449 -1,-1l0,-16zm-4,1l2,0l0,14l-2,0l0,-14zm40,21c0,0.551 -0.448,1 -1,1l-32,0c-0.552,0 -1,-0.449 -1,-1l0,-3l33,0c0.342,0 0.677,-0.035 1,-0.101l0,3.101zm2,-8c0,1.654 -1.346,3 -3,3l-25,0l0,-18.618c0.253,-0.138 0.494,-0.297 0.721,-0.478l2.809,-2.247c0.529,-0.424 1.195,-0.657 1.873,-0.657l19.597,0c1.654,0 3,1.346 3,3l0,16z"/>
  <path fill="#ffffff" stroke="#ffffff" id="svg_3" d="m43,47l16,0l0,-14l-16,0l0,14zm2,-12l12,0l0,10l-12,0l0,-10z"/>
  <rect fill="#ffffff" stroke="#ffffff" id="svg_4" y="29" x="57" width="2" height="2"/>
  <rect fill="#ffffff" stroke="#ffffff" id="svg_5" y="29" x="43" width="12" height="2"/>
  <rect fill="#ffffff" stroke="#ffffff" id="svg_6" y="33" x="25" width="4" height="2"/>
  <rect fill="#ffffff" stroke="#ffffff" id="svg_7" y="37" x="25" width="4" height="2"/>
  <rect fill="#ffffff" stroke="#ffffff" id="svg_8" y="41" x="25" width="4" height="2"/>
  <rect fill="#ffffff" stroke="#ffffff" id="svg_9" y="45" x="25" width="4" height="2"/>
  <path fill="#ffffff" stroke="#ffffff" id="svg_10" d="m35,47l6,0l0,-16l-6,0l0,16zm2,-14l2,0l0,12l-2,0l0,-12z"/>
 </g>
</svg>