<svg width="24" height="24" xmlns="http://www.w3.org/2000/svg">

    <g>
        <title>background</title>
        <rect fill="none" id="canvas_background" height="402" width="582" y="-1" x="-1" />
    </g>
    <g>
        <title>Layer 1</title>
        <path fill="#ffffff" id="search"
            d="m22.4,19.6l-4.8,-4.8c0.9,-1.4 1.4,-3 1.4,-4.8c0,-5 -4,-9 -9,-9s-9,4 -9,9s4,9 9,9c1.8,0 3.4,-0.5 4.8,-1.4l4.8,4.8c0.4,0.4 0.9,0.6 1.4,0.6c1.1,0 2,-0.9 2,-2c0,-0.6 -0.2,-1.1 -0.6,-1.4zm-17.4,-9.6c0,-2.8 2.2,-5 5,-5s5,2.2 5,5s-2.2,5 -5,5s-5,-2.2 -5,-5z" />
    </g>
</svg>