<!-- Icon link: https://www.iconfinder.com/icons/3990124/business_dynamic_global_international_services_world_icon -->
<svg width="512" height="512" xmlns="http://www.w3.org/2000/svg">
    <g>
        <title>background</title>
        <rect fill="none" id="canvas_background" height="402" width="582" y="-1" x="-1" />
    </g>
    <g>
        <title>Layer 1</title>
        <path fill="#ffffff" id="svg_2"
            d="m319.965,155.738l-65.386,0c0.355,22.049 3.634,43.139 9.503,61.777l55.883,0l0,-61.777z" />
        <path fill="#ffffff" id="svg_3"
            d="m393.353,155.738l-65.388,0l0,61.777l55.885,0c5.869,-18.638 9.147,-39.728 9.503,-61.777z" />
        <path fill="#ffffff" id="svg_4"
            d="m383.5,84.841l-55.535,0l0,62.897l65.388,0c-0.363,-22.489 -3.76,-43.989 -9.853,-62.897z" />
        <path fill="#ffffff" id="svg_5"
            d="m319.965,84.841l-55.533,0c-6.094,18.908 -9.49,40.408 -9.853,62.897l65.386,0l0,-62.897z" />
        <path fill="#ffffff" id="svg_6"
            d="m372.386,244.907c3.28,-6.006 6.194,-12.505 8.741,-19.392l-53.162,0l0,56.471c16.61,-1.803 32.256,-14.802 44.421,-37.079z" />
        <path fill="#ffffff" id="svg_7"
            d="m319.965,224.435742l-53.16,0c2.547,6.887 5.461,13.386 8.741,19.392c12.165,22.276 27.81,35.275 44.419,37.079l0,-56.471z" />
        <path fill="#ffffff" id="svg_8"
            d="m454.357,155.738l-53.006,0c-0.343,21.909 -3.486,42.958 -9.135,61.777l44.376,0c10.695,-18.245 17.086,-39.305 17.765,-61.777z" />
        <path fill="#ffffff" id="svg_9"
            d="m379.406,248.741c-6.896,12.63 -14.93,22.577 -23.713,29.562c31.242,-7.837 58.047,-26.969 75.812,-52.788l-41.895,0c-2.906,8.288 -6.304,16.087 -10.204,23.226z" />
        <path fill="#ffffff" id="svg_10"
            d="m372.386,58.589c-12.165,-22.27 -27.81,-35.267 -44.421,-37.07l0,55.322l52.727,0c-2.446,-6.461 -5.209,-12.581 -8.306,-18.252z" />
        <path fill="#ffffff" id="svg_11"
            d="m401.352,147.738l53.006,0c-0.694,-22.934 -7.338,-44.396 -18.437,-62.897l-44.055,0c5.864,19.102 9.136,40.55 9.486,62.897z" />
        <path fill="#ffffff" id="svg_12"
            d="m379.406,54.754c3.723,6.813 6.992,14.222 9.811,22.087l41.499,0c-17.763,-25.237 -44.238,-43.917 -75.019,-51.638c8.782,6.983 16.814,16.926 23.709,29.551z" />
        <path fill="#ffffff" id="svg_13"
            d="m255.714,217.515c-5.647,-18.818 -8.791,-39.868 -9.134,-61.777l-53.019,0c0.681,22.472 7.071,43.531 17.767,61.777l44.386,0z" />
        <path fill="#ffffff" id="svg_14"
            d="m319.965,21.519c-16.609,1.803 -32.255,14.8 -44.42,37.07c-3.097,5.671 -5.859,11.791 -8.305,18.252l52.725,0l0,-55.322z" />
        <path fill="#ffffff" id="svg_15"
            d="m474.473,288.742c-4.453,-4.674 -28.211,-0.211 -59.711,25.323c-16.732,13.327 -35.871,26.599 -51.198,24.103l-0.144,-0.023c6.672,6.828 10.062,15.439 8.701,23.904c-2.172,13.512 -15.227,21.673 -34.922,21.83c-0.011,0 -0.021,0 -0.032,0c-0.214,0 -0.427,-0.018 -0.638,-0.051l-88.602,-14.319c-2.181,-0.353 -3.663,-2.406 -3.311,-4.587c0.352,-2.18 2.403,-3.666 4.587,-3.311l88.263,14.264c15.274,-0.201 25.268,-5.831 26.756,-15.095c1.386,-8.627 -5.473,-20.618 -20.915,-25.849c-0.049,-0.018 -0.09,-0.045 -0.138,-0.063l-98.888,-16c-1.014,-0.164 -1.925,-0.711 -2.546,-1.528c-11.661,-15.347 -25.503,-23.972 -41.144,-25.635c-35.952,-3.817 -74.498,29.243 -93.019,45.135c-1.737,1.49 -3.312,2.838 -4.742,4.038l-11.774,-14.812c-0.714,-0.898 -1.78,-1.446 -2.926,-1.505c-1.141,-0.055 -2.262,0.377 -3.064,1.197l-55.295,47.486c-1.545,1.578 -1.517,4.111 0.063,5.656c1.58,1.545 4.113,1.518 5.656,-0.063l52.126,-44.246l93.266,117.322l-42.502,39.091c-1.491,1.631 -1.378,4.16 0.252,5.651c0.768,0.702 1.734,1.049 2.699,1.049c1.083,0 2.164,-0.438 2.953,-1.3l44.805,-41.609c1.327,-1.451 1.403,-3.65 0.18,-5.189l-14.472,-18.205l15.723,-12.498c0.831,-0.66 1.888,-0.958 2.943,-0.844c131.286,14.998 138.038,9.084 202.63,-47.467c16.646,-14.573 37.35,-32.7 64.852,-54.569c15.1,-16.942 15.46,-25.251 13.528,-27.281z" />
        <path fill="#ffffff" id="svg_16"
            d="m256.065,84.841l-44.065,0c-11.1,18.5 -17.744,39.963 -18.439,62.897l53.019,0c0.35,-22.347 3.621,-43.795 9.485,-62.897z" />
        <path fill="#ffffff" stroke="#000000" stroke-opacity="0" id="svg_17"
            d="m268.524,54.754c6.896,-12.626 14.929,-22.569 23.711,-29.552c-30.786,7.72 -57.265,26.4 -75.031,51.639l41.51,0c2.819,-7.865 6.089,-15.274 9.81,-22.087z" />
        <path fill="#ffffff" id="svg_18"
            d="m268.524,248.741c-3.899,-7.14 -7.298,-14.938 -10.204,-23.226l-41.905,0c17.767,25.82 44.577,44.953 75.824,52.789c-8.784,-6.985 -16.817,-16.932 -23.715,-29.563z" />
        <path fill="#ffffff" id="svg_19"
            d="m137.532,475.639c2.983,0 5.915,-1.023 8.262,-2.887c5.72,-4.561 6.676,-12.929 2.128,-18.66c-2.537,-3.183 -6.328,-5.009 -10.4,-5.009c-2.989,0 -5.924,1.027 -8.264,2.893c-5.722,4.563 -6.671,12.927 -2.124,18.637c2.527,3.193 6.316,5.025 10.398,5.026c-0.001,0 -0.001,0 0,0z" />
    </g>
</svg>