<!-- Icon link: https://www.iconfinder.com/icons/4213462/communication_global_internet_network_web_worldwide_www_icon -->
<svg width="128" height="128" xmlns="http://www.w3.org/2000/svg">

    <g>
        <title>background</title>
        <rect fill="none" id="canvas_background" height="402" width="582" y="-1" x="-1" />
    </g>
    <g>
        <title>Layer 1</title>
        <path fill="#176083" id="svg_2"
            d="m64,126c34.2,0 62,-27.8 62,-62s-27.8,-62 -62,-62s-62,27.8 -62,62s27.8,62 62,62zm-48,-37.3l25.2,-0.2c2.8,10.1 7.5,19.9 13.9,28.7c-17.1,-2.8 -31.4,-13.7 -39.1,-28.5zm31.6,-41.7l31.4,0c2.3,11 2.3,22.3 0.2,33.3l-31.6,0.2c-2.3,-11.1 -2.3,-22.5 0,-33.5zm15.7,67.9c-6.3,-8.1 -10.9,-17 -13.7,-26.4l27.5,-0.2c-2.9,9.4 -7.5,18.4 -13.8,26.6zm8,2.6c6.6,-9 11.3,-18.9 14.1,-29.3l26.9,-0.2c-7.8,15.7 -23,27 -41,29.5zm46.7,-53.5c0,5.6 -0.9,11 -2.4,16l-28.3,0.2c2,-11 1.9,-22.2 -0.2,-33.2l28.1,0c1.8,5.3 2.8,11.1 2.8,17zm-6.2,-25l-26.6,0c-2.9,-10 -7.5,-19.7 -13.9,-28.5c17.7,2.4 32.6,13.3 40.5,28.5zm-34.9,0l-27.2,0c2.9,-9.2 7.4,-17.9 13.6,-25.9c6.2,8 10.7,16.7 13.6,25.9zm-21.8,-28.2c-6.3,8.7 -10.9,18.2 -13.7,28.2l-25.2,0c7.7,-14.7 21.9,-25.4 38.9,-28.2zm-15.6,36.2c-2.1,11.1 -2.1,22.4 -0.1,33.5l-26.7,0.2c-1.8,-5.3 -2.7,-10.9 -2.7,-16.7c0,-5.9 1,-11.7 2.8,-17l26.7,0z" />
    </g>
</svg>